<svg xmlns="http://www.w3.org/2000/svg" viewBox="0 0 529.49 179.02"><defs><style>.cls-1{fill:#4d3a31;}</style></defs><g id="Camada_2" data-name="Camada 2"><g id="Camada_1-2" data-name="Camada 1"><path class="cls-1" d="M480.7,109.45H463.43l8.64-21.07Zm26,27.21L478.85,71.2H465.66l-27.85,65.46h14.57l5.95-14.58h27.48l5.94,14.58Zm-90.07-32.31c0,11.51-7.89,19.4-19.59,19.4H386V84.57H397c11.7,0,19.59,8.08,19.59,19.59Zm14.95-.19V104c0-18.3-14.11-32.32-34.54-32.32H371.69v65H397c20.43,0,34.54-14.21,34.54-32.5m-79.2,32.5v-65H338.27v40l-30.46-40H294.62v65h14.12V95.34l31.48,41.32Zm-97.5-27.21H237.61l8.64-21.07Zm26,27.21L253,71.2H239.84L212,136.66h14.57l5.95-14.58H260l5.94,14.58ZM186.45,94c0,5.48-4,9.19-11,9.19H161V84.57h14.21c7,0,11.23,3.16,11.23,9.28Zm16.44,42.62L187,113.45c8.26-3.07,13.93-9.66,13.93-20.15v-.19c0-13.37-9.2-21.45-24.52-21.45H146.71v65H161v-20.8h11.23l13.93,20.8ZM107,109.45H89.7l8.63-21.07Zm26,27.21L105.11,71.2H91.93L64.07,136.66H78.65l5.94-14.58h27.49L118,136.66Zm-67.79-65H49.77l-17,45.78-17-45.78H0l26.28,65.46H38.91Z"/><path class="cls-1" d="M347.79,35.71a8.74,8.74,0,0,0-.64-3.2,8.36,8.36,0,0,0-1.82-2.7A8.16,8.16,0,0,0,336,28.29a8.32,8.32,0,0,0-2.56,2,9.2,9.2,0,0,0-1.75,2.95,9.08,9.08,0,0,0-.6,3.38,8.39,8.39,0,0,0,.64,3.21,8.14,8.14,0,0,0,4.72,4.52,8.21,8.21,0,0,0,3.38.52,7.88,7.88,0,0,0,3.09-.83,8.52,8.52,0,0,0,2.55-2,9.07,9.07,0,0,0,1.75-3,9.26,9.26,0,0,0,.61-3.38m1.06,9.16a12.37,12.37,0,0,1-3.9,2.86A12.81,12.81,0,0,1,335,48a13.08,13.08,0,0,1-4.51-2.74,12.26,12.26,0,0,1-2.83-3.94,12.41,12.41,0,0,1-1.06-4.69A13.17,13.17,0,0,1,330,27.48a12.33,12.33,0,0,1,3.91-2.87,12.78,12.78,0,0,1,10-.31A13.08,13.08,0,0,1,348.37,27a12.18,12.18,0,0,1,3.89,8.64,13.21,13.21,0,0,1-3.41,9.19m-30.09-28.1-6.4,23.66-4.12-1.11,6.4-23.66Zm-23.83-.16A5.94,5.94,0,0,0,291.39,15l-6.2-1-1.35,8.16,6.24,1a5.65,5.65,0,0,0,3.82-.51,3.73,3.73,0,0,0,1.85-2.76,3.64,3.64,0,0,0-.82-3.25m-1.81,19.55-4.56-9.42-5.34-.88-1.39,8.43-4.22-.7,4-24.18,10.78,1.78a12.58,12.58,0,0,1,3.66,1.16,8.07,8.07,0,0,1,2.58,2A6.71,6.71,0,0,1,300,17.05a8.07,8.07,0,0,1,.09,3.3,8.13,8.13,0,0,1-.88,2.64,7.07,7.07,0,0,1-1.54,1.91,7.24,7.24,0,0,1-2.07,1.25,9.08,9.08,0,0,1-2.49.6l5,10.24ZM253.42,5.61,257.33,0l3.79,1.85-4.41,3.87Zm8.8,11.25A8.73,8.73,0,0,0,260.61,14a8.33,8.33,0,0,0-9.28-2.23,7.89,7.89,0,0,0-2.67,1.77,8.51,8.51,0,0,0-1.8,2.7,9.67,9.67,0,0,0-.73,3.36,9.41,9.41,0,0,0,.5,3.4,8.58,8.58,0,0,0,1.62,2.84,8,8,0,0,0,5.91,2.79,8,8,0,0,0,3.37-.56,7.89,7.89,0,0,0,2.67-1.77,8.49,8.49,0,0,0,1.79-2.7,9.6,9.6,0,0,0,.23-6.76m3.9,8.36a12.45,12.45,0,0,1-2.8,4,12.85,12.85,0,0,1-4.15,2.6,13.79,13.79,0,0,1-10.36-.34,12.35,12.35,0,0,1-3.93-2.85,12.49,12.49,0,0,1-2.49-4.12,13.25,13.25,0,0,1,.34-9.8,12.61,12.61,0,0,1,2.8-3.95,12.85,12.85,0,0,1,9.37-3.44,13.2,13.2,0,0,1,5.15,1.18,12.11,12.11,0,0,1,6.41,7,13.12,13.12,0,0,1-.34,9.8m-41.3-11.77a6.14,6.14,0,0,0-3.95-.78l-5,.42.74,8.83,5-.43A5.8,5.8,0,0,0,225.39,20a4,4,0,0,0,1.14-3.32,3.89,3.89,0,0,0-1.71-3.19m5.6,6.42a7.58,7.58,0,0,1-1.87,2.8,9.45,9.45,0,0,1-3,1.85,13.06,13.06,0,0,1-3.77.86l-4.86.41.66,7.85-4.25.36L211.28,9.58l9.63-.82a12.42,12.42,0,0,1,3.91.25,8.41,8.41,0,0,1,3.07,1.41A7.58,7.58,0,0,1,230,12.85a8.63,8.63,0,0,1,.93,3.33,8.17,8.17,0,0,1-.47,3.69M188.55,32.53l-.14,0L178.48,23l3.72,17.11L178,41,172.82,17l4.49-1,9.74,9.74,4.83-12.9,4.49-1,5.2,24-4.18.91-3.73-17.18Zm-27.89-7.47-13,4.7,2.13,5.93,11.57-4.16,1.31,3.65-11.56,4.16,2.21,6.17,13.22-4.76,1.31,3.66-17.23,6.2-8.3-23.07,17.07-6.14Z"/><path class="cls-1" d="M519.31,128.31V125H522a5.66,5.66,0,0,1,.82.06,2.19,2.19,0,0,1,.75.22,1.43,1.43,0,0,1,.53.48,1.54,1.54,0,0,1-.92,2.38,3.92,3.92,0,0,1-1,.13h-2.77Zm3.27.9a5.8,5.8,0,0,0,1.14-.16,2.67,2.67,0,0,0,.93-.44,2.06,2.06,0,0,0,.61-.78,2.65,2.65,0,0,0,.22-1.15,2.3,2.3,0,0,0-.72-1.79,3.8,3.8,0,0,0-2.55-.65h-4v9.22h1.14v-4.25h2.07l2.64,4.25h1.35Zm-4.12,6.27a6.68,6.68,0,0,1-2.22-1.53,6.89,6.89,0,0,1-1.45-2.28,7.93,7.93,0,0,1,0-5.65,6.9,6.9,0,0,1,1.45-2.26,6.8,6.8,0,0,1,2.22-1.52,7.33,7.33,0,0,1,5.57,0,6.67,6.67,0,0,1,2.19,1.52,7,7,0,0,1,1.44,2.26,7.93,7.93,0,0,1,0,5.65,7,7,0,0,1-1.44,2.28,6.55,6.55,0,0,1-2.19,1.53,7.33,7.33,0,0,1-5.57,0m6,1a8.43,8.43,0,0,0,2.63-1.78,8.3,8.3,0,0,0,1.77-2.62,8.21,8.21,0,0,0-1.77-9,8.4,8.4,0,0,0-2.63-1.77,8.16,8.16,0,0,0-6.43,0,8.52,8.52,0,0,0-2.63,1.77,8.15,8.15,0,0,0-1.77,2.61,8.18,8.18,0,0,0,0,6.44,8.3,8.3,0,0,0,1.77,2.62,8.54,8.54,0,0,0,2.63,1.78,8.28,8.28,0,0,0,6.43,0"/><path class="cls-1" d="M350.78,160.85h1.49v17.86h-2V162.93l-3.35,1-.48-1.63ZM325,161h12v1.49L329,178.71h-2.23l8-15.91H325Zm-12.6,3.92a3.73,3.73,0,0,0-.92-1.28,4.44,4.44,0,0,0-1.43-.86,5.17,5.17,0,0,0-1.83-.31,4.45,4.45,0,0,0-1.78.34,4.17,4.17,0,0,0-1.35.91,3.89,3.89,0,0,0-.83,1.33,4.32,4.32,0,0,0-.29,1.6,3.64,3.64,0,0,0,1.2,2.8,4.26,4.26,0,0,0,1.38.81,5.32,5.32,0,0,0,1.78.29,4.89,4.89,0,0,0,1.83-.34,4.44,4.44,0,0,0,1.4-.9,3.77,3.77,0,0,0,.87-1.29,3.94,3.94,0,0,0,.3-1.5,3.88,3.88,0,0,0-.33-1.6m2.23,8.38a9.39,9.39,0,0,1-1.5,3,7.14,7.14,0,0,1-2.33,2,6.45,6.45,0,0,1-3,.71,7,7,0,0,1-3-.62,12.54,12.54,0,0,1-2.43-1.56l1.17-1.55a8.5,8.5,0,0,0,2.12,1.43,5.28,5.28,0,0,0,2.23.47,4.19,4.19,0,0,0,2.18-.58,5.39,5.39,0,0,0,1.69-1.61,7.69,7.69,0,0,0,1.06-2.46,11.47,11.47,0,0,0,.34-3.13,6.9,6.9,0,0,1-1.95,2,5.33,5.33,0,0,1-3.06.83,7.47,7.47,0,0,1-2.51-.4,5.7,5.7,0,0,1-2-1.14,5.39,5.39,0,0,1-1.27-1.75,5.45,5.45,0,0,1-.45-2.23,5.89,5.89,0,0,1,3.78-5.59,7,7,0,0,1,2.6-.47,6.83,6.83,0,0,1,2.66.48,6.09,6.09,0,0,1,2,1.35,6.54,6.54,0,0,1,.94,1.16,6.35,6.35,0,0,1,.68,1.46A10.11,10.11,0,0,1,315,167a15.73,15.73,0,0,1,.16,2.4,13.25,13.25,0,0,1-.54,3.89m-25.43-12.43h1.49v17.86h-2V162.93l-3.35,1-.48-1.63Zm-28.48,2H249.91v6.06h9.68v1.82h-9.68v6.21h10.94v1.82H247.91V161h12.82ZM234,167.11a6.42,6.42,0,0,0-1.47-2.24,6.6,6.6,0,0,0-2.31-1.5,8.26,8.26,0,0,0-3-.54H223v14h4.16a8.26,8.26,0,0,0,3-.53,6.56,6.56,0,0,0,2.31-1.48,6.43,6.43,0,0,0,1.47-2.22,7.1,7.1,0,0,0,.52-2.76,7.25,7.25,0,0,0-.52-2.76m1.92,6.22a8.31,8.31,0,0,1-1.94,2.82,9.16,9.16,0,0,1-3,1.88,10.45,10.45,0,0,1-3.81.68H221V161h6.16a10.45,10.45,0,0,1,3.81.67,9.11,9.11,0,0,1,3,1.86,8.37,8.37,0,0,1,1.94,2.81,9.37,9.37,0,0,1,0,7m-36.46-6.8a2.25,2.25,0,0,0,.73.93,5.55,5.55,0,0,0,1.47.76,18.64,18.64,0,0,0,2.41.65,10.62,10.62,0,0,1,4.37,1.82,4,4,0,0,1,1.41,3.23,4.74,4.74,0,0,1-1.7,3.68,5.56,5.56,0,0,1-1.9,1,8,8,0,0,1-2.44.36,10.54,10.54,0,0,1-3.88-.69,10.92,10.92,0,0,1-3.36-2.13l1.24-1.47a10.35,10.35,0,0,0,2.81,1.89,8,8,0,0,0,3.27.62,4.63,4.63,0,0,0,2.88-.83,2.69,2.69,0,0,0,1.07-2.21,2.85,2.85,0,0,0-.2-1.13,2.29,2.29,0,0,0-.71-.9,5.1,5.1,0,0,0-1.41-.74,17.65,17.65,0,0,0-2.3-.63,19.53,19.53,0,0,1-2.65-.76,6.73,6.73,0,0,1-1.87-1,3.75,3.75,0,0,1-1.09-1.43,4.7,4.7,0,0,1-.36-1.92,4.54,4.54,0,0,1,.43-2,4.62,4.62,0,0,1,1.22-1.53,5.81,5.81,0,0,1,1.85-1,7.25,7.25,0,0,1,2.33-.37,9.8,9.8,0,0,1,3.41.54,10.36,10.36,0,0,1,2.82,1.62l-1.16,1.54a8.93,8.93,0,0,0-2.5-1.47,7.68,7.68,0,0,0-2.62-.45,4.82,4.82,0,0,0-1.56.23,4,4,0,0,0-1.19.6,2.68,2.68,0,0,0-.76.92,2.46,2.46,0,0,0-.27,1.14,3,3,0,0,0,.21,1.14m-13-3.73H175.62v6.06h9.68v1.82h-9.68v6.21h10.95v1.82H173.62V161h12.82Zm-26.74,4.31a6.59,6.59,0,0,0-3.79-3.74,8.22,8.22,0,0,0-3-.54h-4.16v14h4.16a8.22,8.22,0,0,0,3-.53,6.52,6.52,0,0,0,3.79-3.7,7.29,7.29,0,0,0,.51-2.76,7.44,7.44,0,0,0-.51-2.76m1.91,6.22a8.17,8.17,0,0,1-1.94,2.82,9.16,9.16,0,0,1-3,1.88,10.45,10.45,0,0,1-3.81.68h-6.16V161h6.16a10.45,10.45,0,0,1,3.81.67,9.11,9.11,0,0,1,3,1.86,8.23,8.23,0,0,1,1.94,2.81,9.37,9.37,0,0,1,0,7"/></g></g></svg>